<?xml version="1.0" encoding="UTF-8"?>
<svg xmlns="http://www.w3.org/2000/svg" xmlns:xlink="http://www.w3.org/1999/xlink" width="520" height="210" viewBox="161 201 520 210">
<path fill-rule="nonzero" fill="#EA5042" fill-opacity="1" d="M 346.34375 341.9375 L 338.964844 335.285156 L 367.984375 303.085938 L 375.363281 309.734375 Z M 346.34375 341.9375 "/>
<path fill-rule="nonzero" fill="#EA5042" fill-opacity="1" d="M 389.636719 290.1875 C 389.554688 290.144531 380.027344 285.257812 366.398438 283.574219 L 356.550781 282.355469 L 402.25 231.277344 C 405.253906 227.945312 409.53125 226.039062 413.992188 226.039062 C 418.453125 226.039062 422.726562 227.941406 425.71875 231.265625 C 431.96875 238.199219 431.96875 249.0625 425.71875 256 L 393.207031 292.074219 Z M 389.636719 290.1875 "/>
<path fill-rule="nonzero" fill="#231916" fill-opacity="1" d="M 195.097656 235.414062 L 195.097656 220.75 C 195.097656 211.074219 201.847656 203.585938 210.566406 203.585938 C 219 203.585938 226.03125 211.074219 226.03125 220.75 L 226.03125 355.234375 C 226.03125 361.785156 235.308594 373.644531 248.523438 373.644531 C 262.023438 373.644531 271.300781 361.785156 271.300781 355.234375 C 271.300781 345.558594 278.332031 338.070312 286.765625 338.070312 C 295.203125 338.070312 302.230469 345.558594 302.230469 355.234375 C 302.230469 382.691406 276.644531 407.964844 248.523438 407.964844 C 220.6875 407.964844 195.097656 382.691406 195.097656 355.234375 Z M 195.097656 235.414062 "/>
<path fill-rule="nonzero" fill="#231916" fill-opacity="1" d="M 391.925781 285.652344 C 404.015625 294.074219 412.453125 309.054688 415.828125 329.335938 C 418.359375 344.625 424.542969 352.425781 434.105469 352.425781 C 443.945312 352.425781 452.101562 343.375 452.101562 332.453125 C 452.101562 323.09375 459.128906 315.292969 467.566406 315.292969 C 476 315.292969 483.03125 323.09375 483.03125 332.453125 C 483.03125 362.410156 461.097656 386.75 434.105469 386.75 C 409.078125 386.75 390.800781 367.714844 385.457031 335.574219 C 382.925781 320.597656 377.023438 312.796875 367.742188 312.484375 L 349.464844 333.078125 C 349.1875 342.128906 342.4375 349.617188 334 349.617188 C 325.285156 349.617188 318.535156 342.128906 318.535156 332.453125 C 318.535156 302.8125 340.1875 278.472656 366.898438 278.472656 L 386.160156 269.960938 Z M 391.925781 285.652344 "/>
<path fill-rule="nonzero" fill="#231916" fill-opacity="1" d="M 655.113281 377.386719 C 637.117188 397.355469 607.59375 397.355469 589.597656 377.386719 C 583.410156 370.523438 583.410156 359.914062 589.597656 353.046875 C 595.5 346.496094 605.34375 346.496094 611.246094 353.046875 C 617.433594 359.914062 627.273438 359.601562 633.179688 353.046875 C 639.367188 346.496094 649.207031 346.496094 655.113281 353.046875 C 661.300781 359.914062 661.019531 370.523438 655.113281 377.386719 M 655.113281 321.847656 C 649.207031 328.398438 639.367188 328.710938 633.179688 321.847656 C 627.273438 315.292969 617.433594 315.292969 611.246094 321.847656 C 605.34375 328.398438 595.5 328.398438 589.597656 321.847656 C 583.410156 314.980469 583.410156 304.371094 589.597656 297.507812 C 607.59375 277.539062 637.117188 277.539062 655.113281 297.507812 C 661.019531 304.371094 661.300781 314.980469 655.113281 321.847656 M 517.332031 241.03125 L 517.332031 221.996094 C 517.332031 212.324219 524.078125 204.835938 532.796875 204.835938 C 541.230469 204.835938 548.261719 212.324219 548.261719 221.996094 L 548.261719 386.125 C 548.261719 395.484375 541.230469 403.285156 532.796875 403.285156 C 524.078125 403.285156 517.332031 395.484375 517.332031 386.125 Z M 517.332031 241.03125 "/>
<path fill-rule="nonzero" fill="#00B2ED" fill-opacity="1" d="M 195.097656 270.671875 L 178.789062 270.671875 C 170.355469 270.671875 163.324219 262.871094 163.324219 253.511719 C 163.324219 244.152344 170.355469 236.351562 178.789062 236.351562 L 273.550781 236.351562 C 281.988281 236.351562 289.015625 244.152344 289.015625 253.511719 C 289.015625 262.871094 281.988281 270.671875 273.550781 270.671875 Z M 195.097656 270.671875 "/>
<path fill-rule="nonzero" fill="#D53E90" fill-opacity="1" d="M 188.160156 318.257812 L 178.320312 318.257812 C 172.132812 318.257812 167.074219 312.640625 167.074219 305.777344 C 167.074219 298.914062 172.132812 293.296875 178.320312 293.296875 L 242.148438 293.296875 C 248.335938 293.296875 253.398438 298.914062 253.398438 305.777344 C 253.398438 312.640625 248.335938 318.257812 242.148438 318.257812 Z M 188.160156 318.257812 "/>
<path fill-rule="nonzero" fill="#99C952" fill-opacity="1" d="M 516.398438 265.992188 L 504.589844 265.992188 C 498.402344 265.992188 493.34375 260.375 493.34375 253.511719 C 493.34375 246.648438 498.402344 241.03125 504.589844 241.03125 L 569.261719 241.03125 C 575.449219 241.03125 580.511719 246.648438 580.511719 253.511719 C 580.511719 260.375 575.449219 265.992188 569.261719 265.992188 Z M 516.398438 265.992188 "/>
<path fill-rule="nonzero" fill="#EA5042" fill-opacity="1" d="M 367.03125 278.421875 L 406.117188 234.738281 C 410.335938 230.058594 417.648438 230.058594 421.863281 234.738281 C 426.363281 239.730469 426.363281 247.53125 421.863281 252.523438 L 392.058594 285.597656 C 392.058594 285.597656 382.5 278.332031 367.03125 278.421875 "/>
<path fill-rule="nonzero" fill="#EA5042" fill-opacity="1" d="M 367.742188 312.484375 L 349.46875 333.078125 C 349.46875 333.078125 348.175781 323.703125 354.460938 317.34375 C 360.707031 311.019531 367.742188 312.484375 367.742188 312.484375 "/>
<path fill-rule="nonzero" fill="#231916" fill-opacity="1" d="M 660.363281 255.574219 C 650.625 255.574219 643.050781 247.171875 643.050781 236.367188 C 643.050781 225.5625 650.625 217.15625 660.363281 217.15625 C 670.097656 217.15625 677.671875 225.5625 677.671875 236.367188 C 677.671875 247.171875 670.097656 255.574219 660.363281 255.574219 "/>
<path fill-rule="nonzero" fill="#231916" fill-opacity="1" d="M 617.085938 255.574219 C 607.351562 255.574219 599.777344 247.171875 599.777344 236.367188 C 599.777344 225.5625 607.351562 217.15625 617.085938 217.15625 C 626.824219 217.15625 634.394531 225.5625 634.394531 236.367188 C 634.394531 247.171875 626.824219 255.574219 617.085938 255.574219 "/>
<path fill-rule="nonzero" fill="#FFFFFF" fill-opacity="1" d="M 621.375 249.417969 C 617.125 249.417969 613.816406 245.75 613.816406 241.03125 C 613.816406 236.3125 617.125 232.640625 621.375 232.640625 C 625.628906 232.640625 628.933594 236.3125 628.933594 241.03125 C 628.933594 245.75 625.628906 249.417969 621.375 249.417969 "/>
<path fill-rule="nonzero" fill="#231916" fill-opacity="1" d="M 603.351562 229.796875 C 590.292969 221.410156 592.609375 212.753906 592.609375 212.753906 C 592.609375 212.753906 599.59375 223.183594 606.492188 223.335938 Z M 603.351562 229.796875 "/>
<path fill-rule="nonzero" fill="#231916" fill-opacity="1" d="M 610.679688 225.679688 C 597.621094 217.292969 599.933594 208.632812 599.933594 208.632812 C 599.933594 208.632812 606.917969 219.0625 613.816406 219.214844 Z M 610.679688 225.679688 "/>
<path fill-rule="nonzero" fill="#231916" fill-opacity="1" d="M 660.4375 255.574219 C 650.699219 255.574219 643.125 247.171875 643.125 236.367188 C 643.125 225.5625 650.699219 217.15625 660.4375 217.15625 C 670.175781 217.15625 677.746094 225.5625 677.746094 236.367188 C 677.746094 247.171875 670.175781 255.574219 660.4375 255.574219 "/>
<path fill-rule="nonzero" fill="#FFFFFF" fill-opacity="1" d="M 664.726562 249.417969 C 660.476562 249.417969 657.167969 245.75 657.167969 241.03125 C 657.167969 236.3125 660.476562 232.640625 664.726562 232.640625 C 668.980469 232.640625 672.285156 236.3125 672.285156 241.03125 C 672.285156 245.75 668.980469 249.417969 664.726562 249.417969 "/>
<path fill-rule="nonzero" fill="#231916" fill-opacity="1" d="M 646.703125 229.796875 C 633.644531 221.410156 635.957031 212.753906 635.957031 212.753906 C 635.957031 212.753906 642.945312 223.183594 649.839844 223.335938 Z M 646.703125 229.796875 "/>
<path fill-rule="nonzero" fill="#231916" fill-opacity="1" d="M 654.03125 225.679688 C 640.972656 217.292969 643.285156 208.632812 643.285156 208.632812 C 643.285156 208.632812 650.269531 219.0625 657.167969 219.214844 Z M 654.03125 225.679688 "/>
</svg>
